<svg width="29" height="37" fill="none" xmlns="http://www.w3.org/2000/svg">
    <g clip-path="url(#a)">
        <mask id="b" fill="#fff">
            <path d="M.733 18.583V4.131C.733 1.893 2.027.6 4.253.6h20.413c2.227 0 3.52 1.293 3.52 3.531v28.971c0 2.193-1.305 3.498-3.486 3.498H4.23c-2.18 0-3.485-1.316-3.485-3.498C.733 28.266.733 23.42.733 18.583ZM11.34 32.338h6.23v-2.002h-6.23v2.002Z"/>
        </mask>
        <path d="M.733 18.583V4.131C.733 1.893 2.027.6 4.253.6h20.413c2.227 0 3.52 1.293 3.52 3.531v28.971c0 2.193-1.305 3.498-3.486 3.498H4.23c-2.18 0-3.485-1.316-3.485-3.498C.733 28.266.733 23.42.733 18.583ZM11.34 32.338h6.23v-2.002h-6.23v2.002Z" fill="#E60000"/>
        <path d="M.745 33.102h1V33.1l-1 .002Zm10.594-.764h-1v1h1v-1Zm6.23 0v1h1v-1h-1Zm0-2.002h1v-1h-1v1Zm-6.23 0v-1h-1v1h1ZM1.733 18.583V4.131h-2V18.583h2Zm0-14.452c0-.928.265-1.53.633-1.898.368-.37.966-.633 1.887-.633v-2C2.948-.4 1.786-.017.95.82.115 1.657-.267 2.821-.267 4.131h2ZM4.253 1.6H24.666v-2H4.253v2Zm20.413 0c.92 0 1.519.264 1.887.633.368.369.633.97.633 1.898h2c0-1.31-.382-2.474-1.217-3.31C27.133-.018 25.97-.4 24.666-.4v2Zm2.52 2.531V33.102h2V4.131h-2Zm0 28.971c0 .899-.263 1.495-.633 1.865-.37.37-.962.633-1.854.633v2c1.291 0 2.441-.39 3.27-1.22.828-.83 1.217-1.983 1.217-3.278h-2ZM24.7 35.6H4.23v2H24.7v-2Zm-20.47 0c-.888 0-1.481-.264-1.852-.636-.37-.373-.633-.97-.633-1.862h-2c0 1.29.39 2.442 1.216 3.273.827.831 1.977 1.225 3.27 1.225v-2Zm-2.485-2.5c-.012-4.835-.012-9.68-.012-14.517h-2c0 4.836 0 9.684.012 14.522l2-.005Zm9.594.238H17.569v-2H11.34v2Zm7.23-1V30.336h-2V32.338h2Zm-1-3.002H11.34v2H17.569v-2Zm-7.23 1V32.338h2V30.336h-2Z" fill="#E60000" mask="url(#b)"/>
    </g>
    <defs>
        <clipPath id="a">
            <path fill="#fff" transform="translate(.733 .6)" d="M0 0h27.453v36H0z"/>
        </clipPath>
    </defs>
</svg>
